<mxfile host="app.diagrams.net" modified="2024-03-08T10:27:48.788Z" agent="Mozilla/5.0 (Windows NT 10.0; Win64; x64) AppleWebKit/537.36 (KHTML, like Gecko) Chrome/122.0.0.0 Safari/537.36" etag="cCL8F56Hl2MO8ur_h57h" version="24.0.2" type="github">
  <diagram name="第 1 页" id="9EHZgjo_UKtD6r8Uzgz9">
    <mxGraphModel dx="2261" dy="1938" grid="1" gridSize="10" guides="1" tooltips="1" connect="1" arrows="1" fold="1" page="1" pageScale="1" pageWidth="827" pageHeight="1169" math="0" shadow="0">
      <root>
        <mxCell id="0" />
        <mxCell id="1" parent="0" />
        <mxCell id="Ub1dUwBtqG9SPAVf1FS5-7" style="edgeStyle=orthogonalEdgeStyle;rounded=0;orthogonalLoop=1;jettySize=auto;html=1;strokeWidth=2;entryX=0;entryY=0.5;entryDx=0;entryDy=0;" parent="1" source="Ub1dUwBtqG9SPAVf1FS5-2" target="Ub1dUwBtqG9SPAVf1FS5-9" edge="1">
          <mxGeometry relative="1" as="geometry">
            <mxPoint x="-60" y="230" as="targetPoint" />
          </mxGeometry>
        </mxCell>
        <mxCell id="Ub1dUwBtqG9SPAVf1FS5-10" value="Text" style="edgeLabel;html=1;align=center;verticalAlign=middle;resizable=0;points=[];" parent="Ub1dUwBtqG9SPAVf1FS5-7" vertex="1" connectable="0">
          <mxGeometry x="-0.2298" y="-2" relative="1" as="geometry">
            <mxPoint as="offset" />
          </mxGeometry>
        </mxCell>
        <mxCell id="Ub1dUwBtqG9SPAVf1FS5-2" value="讲师" style="shape=umlActor;verticalLabelPosition=bottom;verticalAlign=top;html=1;outlineConnect=0;strokeWidth=2;" parent="1" vertex="1">
          <mxGeometry x="-200" y="200" width="30" height="60" as="geometry" />
        </mxCell>
        <mxCell id="Ub1dUwBtqG9SPAVf1FS5-3" value="学员" style="shape=umlActor;verticalLabelPosition=bottom;verticalAlign=top;html=1;outlineConnect=0;strokeWidth=2;" parent="1" vertex="1">
          <mxGeometry x="740" y="160" width="30" height="60" as="geometry" />
        </mxCell>
        <mxCell id="Ub1dUwBtqG9SPAVf1FS5-4" value="学员" style="shape=umlActor;verticalLabelPosition=bottom;verticalAlign=top;html=1;outlineConnect=0;strokeWidth=2;" parent="1" vertex="1">
          <mxGeometry x="740" y="270" width="30" height="60" as="geometry" />
        </mxCell>
        <mxCell id="Ub1dUwBtqG9SPAVf1FS5-5" value="ccapi-py" style="rounded=0;whiteSpace=wrap;html=1;" parent="1" vertex="1">
          <mxGeometry x="-80" y="-50" width="120" height="60" as="geometry" />
        </mxCell>
        <mxCell id="Ub1dUwBtqG9SPAVf1FS5-59" style="edgeStyle=orthogonalEdgeStyle;rounded=0;orthogonalLoop=1;jettySize=auto;html=1;entryX=0.4;entryY=-0.025;entryDx=0;entryDy=0;entryPerimeter=0;" parent="1" target="Ub1dUwBtqG9SPAVf1FS5-23" edge="1">
          <mxGeometry relative="1" as="geometry">
            <mxPoint x="480" y="170" as="targetPoint" />
            <mxPoint x="179.5" y="-20" as="sourcePoint" />
            <Array as="points">
              <mxPoint x="180" y="-19" />
              <mxPoint x="410" y="-19" />
              <mxPoint x="410" y="188" />
            </Array>
          </mxGeometry>
        </mxCell>
        <mxCell id="Ub1dUwBtqG9SPAVf1FS5-60" value="补偿dom操作" style="edgeLabel;html=1;align=center;verticalAlign=middle;resizable=0;points=[];" parent="Ub1dUwBtqG9SPAVf1FS5-59" vertex="1" connectable="0">
          <mxGeometry x="-0.0963" y="-2" relative="1" as="geometry">
            <mxPoint as="offset" />
          </mxGeometry>
        </mxCell>
        <mxCell id="Ub1dUwBtqG9SPAVf1FS5-6" value="ccapi-java" style="rounded=0;whiteSpace=wrap;html=1;strokeWidth=2;" parent="1" vertex="1">
          <mxGeometry x="100" y="-50" width="120" height="60" as="geometry" />
        </mxCell>
        <mxCell id="Ub1dUwBtqG9SPAVf1FS5-12" style="edgeStyle=orthogonalEdgeStyle;rounded=0;orthogonalLoop=1;jettySize=auto;html=1;entryX=0.5;entryY=1;entryDx=0;entryDy=0;" parent="1" source="Ub1dUwBtqG9SPAVf1FS5-9" target="Ub1dUwBtqG9SPAVf1FS5-5" edge="1">
          <mxGeometry relative="1" as="geometry">
            <Array as="points">
              <mxPoint x="-20" y="110" />
            </Array>
          </mxGeometry>
        </mxCell>
        <mxCell id="Ub1dUwBtqG9SPAVf1FS5-13" value="同步播放状态（开始、暂停、结束、移动）" style="edgeLabel;html=1;align=center;verticalAlign=middle;resizable=0;points=[];" parent="Ub1dUwBtqG9SPAVf1FS5-12" vertex="1" connectable="0">
          <mxGeometry x="-0.06" y="-1" relative="1" as="geometry">
            <mxPoint as="offset" />
          </mxGeometry>
        </mxCell>
        <mxCell id="Ub1dUwBtqG9SPAVf1FS5-31" style="edgeStyle=orthogonalEdgeStyle;rounded=0;orthogonalLoop=1;jettySize=auto;html=1;entryX=0;entryY=0.5;entryDx=0;entryDy=0;" parent="1" source="Ub1dUwBtqG9SPAVf1FS5-9" target="Ub1dUwBtqG9SPAVf1FS5-29" edge="1">
          <mxGeometry relative="1" as="geometry" />
        </mxCell>
        <mxCell id="Ub1dUwBtqG9SPAVf1FS5-32" value="上报操作事件（增加、移除、放大、缩小）" style="edgeLabel;html=1;align=center;verticalAlign=middle;resizable=0;points=[];" parent="Ub1dUwBtqG9SPAVf1FS5-31" vertex="1" connectable="0">
          <mxGeometry x="-0.1167" y="1" relative="1" as="geometry">
            <mxPoint x="8" y="1" as="offset" />
          </mxGeometry>
        </mxCell>
        <mxCell id="Ub1dUwBtqG9SPAVf1FS5-54" style="edgeStyle=orthogonalEdgeStyle;rounded=0;orthogonalLoop=1;jettySize=auto;html=1;entryX=0;entryY=0.5;entryDx=0;entryDy=0;exitX=0.5;exitY=1;exitDx=0;exitDy=0;strokeWidth=2;" parent="1" source="Ub1dUwBtqG9SPAVf1FS5-9" target="Ub1dUwBtqG9SPAVf1FS5-52" edge="1">
          <mxGeometry relative="1" as="geometry">
            <mxPoint x="-130" y="290" as="sourcePoint" />
            <mxPoint x="80" y="450" as="targetPoint" />
            <Array as="points">
              <mxPoint x="-20" y="390" />
            </Array>
          </mxGeometry>
        </mxCell>
        <mxCell id="Ub1dUwBtqG9SPAVf1FS5-55" value="router 信令同步video_sync" style="edgeLabel;html=1;align=center;verticalAlign=middle;resizable=0;points=[];" parent="Ub1dUwBtqG9SPAVf1FS5-54" vertex="1" connectable="0">
          <mxGeometry x="-0.013" y="-4" relative="1" as="geometry">
            <mxPoint as="offset" />
          </mxGeometry>
        </mxCell>
        <mxCell id="Ub1dUwBtqG9SPAVf1FS5-9" value="打开插播音视频" style="rounded=1;whiteSpace=wrap;html=1;strokeWidth=2;" parent="1" vertex="1">
          <mxGeometry x="-80" y="200" width="120" height="60" as="geometry" />
        </mxCell>
        <mxCell id="Ub1dUwBtqG9SPAVf1FS5-16" value="DB" style="shape=cylinder3;whiteSpace=wrap;html=1;boundedLbl=1;backgroundOutline=1;size=15;" parent="1" vertex="1">
          <mxGeometry x="130" y="-190" width="60" height="80" as="geometry" />
        </mxCell>
        <mxCell id="Ub1dUwBtqG9SPAVf1FS5-19" style="edgeStyle=orthogonalEdgeStyle;rounded=0;orthogonalLoop=1;jettySize=auto;html=1;entryX=0.5;entryY=1;entryDx=0;entryDy=0;entryPerimeter=0;" parent="1" source="Ub1dUwBtqG9SPAVf1FS5-6" target="Ub1dUwBtqG9SPAVf1FS5-16" edge="1">
          <mxGeometry relative="1" as="geometry" />
        </mxCell>
        <mxCell id="Ub1dUwBtqG9SPAVf1FS5-20" value="recording_media 表" style="text;html=1;align=center;verticalAlign=middle;whiteSpace=wrap;rounded=0;" parent="1" vertex="1">
          <mxGeometry x="-20" y="-230" width="140" height="20" as="geometry" />
        </mxCell>
        <mxCell id="Ub1dUwBtqG9SPAVf1FS5-21" value="operator_message 表" style="text;html=1;align=center;verticalAlign=middle;whiteSpace=wrap;rounded=0;" parent="1" vertex="1">
          <mxGeometry x="250" y="-230" width="130" height="40" as="geometry" />
        </mxCell>
        <mxCell id="Ub1dUwBtqG9SPAVf1FS5-26" style="edgeStyle=orthogonalEdgeStyle;rounded=0;orthogonalLoop=1;jettySize=auto;html=1;" parent="1" source="Ub1dUwBtqG9SPAVf1FS5-23" target="Ub1dUwBtqG9SPAVf1FS5-3" edge="1">
          <mxGeometry relative="1" as="geometry" />
        </mxCell>
        <mxCell id="Ub1dUwBtqG9SPAVf1FS5-23" value="广播" style="ellipse;whiteSpace=wrap;html=1;aspect=fixed;strokeWidth=2;" parent="1" vertex="1">
          <mxGeometry x="479" y="190" width="80" height="80" as="geometry" />
        </mxCell>
        <mxCell id="Ub1dUwBtqG9SPAVf1FS5-27" style="edgeStyle=orthogonalEdgeStyle;rounded=0;orthogonalLoop=1;jettySize=auto;html=1;entryX=0;entryY=0.3333333333333333;entryDx=0;entryDy=0;entryPerimeter=0;" parent="1" source="Ub1dUwBtqG9SPAVf1FS5-23" target="Ub1dUwBtqG9SPAVf1FS5-4" edge="1">
          <mxGeometry relative="1" as="geometry" />
        </mxCell>
        <mxCell id="Ub1dUwBtqG9SPAVf1FS5-30" style="edgeStyle=orthogonalEdgeStyle;rounded=0;orthogonalLoop=1;jettySize=auto;html=1;entryX=0;entryY=0.5;entryDx=0;entryDy=0;" parent="1" source="Ub1dUwBtqG9SPAVf1FS5-29" target="Ub1dUwBtqG9SPAVf1FS5-23" edge="1">
          <mxGeometry relative="1" as="geometry">
            <mxPoint x="410" y="160" as="targetPoint" />
          </mxGeometry>
        </mxCell>
        <mxCell id="Ub1dUwBtqG9SPAVf1FS5-35" value="" style="edgeStyle=orthogonalEdgeStyle;rounded=0;orthogonalLoop=1;jettySize=auto;html=1;" parent="1" source="Ub1dUwBtqG9SPAVf1FS5-29" target="Ub1dUwBtqG9SPAVf1FS5-34" edge="1">
          <mxGeometry relative="1" as="geometry" />
        </mxCell>
        <mxCell id="Ub1dUwBtqG9SPAVf1FS5-29" value="pusher" style="rounded=1;whiteSpace=wrap;html=1;strokeWidth=2;" parent="1" vertex="1">
          <mxGeometry x="260" y="200" width="120" height="60" as="geometry" />
        </mxCell>
        <mxCell id="Ub1dUwBtqG9SPAVf1FS5-48" style="edgeStyle=orthogonalEdgeStyle;rounded=0;orthogonalLoop=1;jettySize=auto;html=1;" parent="1" source="Ub1dUwBtqG9SPAVf1FS5-34" target="Ub1dUwBtqG9SPAVf1FS5-36" edge="1">
          <mxGeometry relative="1" as="geometry" />
        </mxCell>
        <mxCell id="Ub1dUwBtqG9SPAVf1FS5-34" value="kafka" style="ellipse;whiteSpace=wrap;html=1;rounded=1;strokeWidth=2;" parent="1" vertex="1">
          <mxGeometry x="280" y="30" width="80" height="80" as="geometry" />
        </mxCell>
        <mxCell id="Ub1dUwBtqG9SPAVf1FS5-49" style="edgeStyle=orthogonalEdgeStyle;rounded=0;orthogonalLoop=1;jettySize=auto;html=1;" parent="1" source="Ub1dUwBtqG9SPAVf1FS5-36" target="Ub1dUwBtqG9SPAVf1FS5-41" edge="1">
          <mxGeometry relative="1" as="geometry" />
        </mxCell>
        <mxCell id="Ub1dUwBtqG9SPAVf1FS5-36" value="class-event" style="rounded=1;whiteSpace=wrap;html=1;strokeWidth=2;" parent="1" vertex="1">
          <mxGeometry x="450" y="40" width="120" height="60" as="geometry" />
        </mxCell>
        <mxCell id="Ub1dUwBtqG9SPAVf1FS5-41" value="mongo" style="shape=cylinder3;whiteSpace=wrap;html=1;boundedLbl=1;backgroundOutline=1;size=15;strokeWidth=2;" parent="1" vertex="1">
          <mxGeometry x="479" y="-120" width="60" height="80" as="geometry" />
        </mxCell>
        <mxCell id="Ub1dUwBtqG9SPAVf1FS5-44" value="" style="endArrow=classic;html=1;rounded=0;entryX=0.367;entryY=1;entryDx=0;entryDy=0;entryPerimeter=0;" parent="1" target="Ub1dUwBtqG9SPAVf1FS5-6" edge="1">
          <mxGeometry width="50" height="50" relative="1" as="geometry">
            <mxPoint x="30" y="200" as="sourcePoint" />
            <mxPoint x="80" y="150" as="targetPoint" />
          </mxGeometry>
        </mxCell>
        <mxCell id="Ub1dUwBtqG9SPAVf1FS5-45" value="补偿逻辑 dom操作" style="edgeLabel;html=1;align=center;verticalAlign=middle;resizable=0;points=[];" parent="Ub1dUwBtqG9SPAVf1FS5-44" vertex="1" connectable="0">
          <mxGeometry x="0.0603" y="1" relative="1" as="geometry">
            <mxPoint x="31" as="offset" />
          </mxGeometry>
        </mxCell>
        <mxCell id="Ub1dUwBtqG9SPAVf1FS5-46" style="edgeStyle=orthogonalEdgeStyle;rounded=0;orthogonalLoop=1;jettySize=auto;html=1;entryX=0;entryY=0.5;entryDx=0;entryDy=0;entryPerimeter=0;" parent="1" source="Ub1dUwBtqG9SPAVf1FS5-5" target="Ub1dUwBtqG9SPAVf1FS5-16" edge="1">
          <mxGeometry relative="1" as="geometry">
            <Array as="points">
              <mxPoint x="-10" y="-150" />
            </Array>
          </mxGeometry>
        </mxCell>
        <mxCell id="Ub1dUwBtqG9SPAVf1FS5-57" style="edgeStyle=orthogonalEdgeStyle;rounded=0;orthogonalLoop=1;jettySize=auto;html=1;" parent="1" source="Ub1dUwBtqG9SPAVf1FS5-52" edge="1">
          <mxGeometry relative="1" as="geometry">
            <mxPoint x="520" y="280" as="targetPoint" />
          </mxGeometry>
        </mxCell>
        <mxCell id="Ub1dUwBtqG9SPAVf1FS5-86" value="" style="edgeStyle=orthogonalEdgeStyle;rounded=0;orthogonalLoop=1;jettySize=auto;html=1;" parent="1" source="Ub1dUwBtqG9SPAVf1FS5-52" target="Ub1dUwBtqG9SPAVf1FS5-85" edge="1">
          <mxGeometry relative="1" as="geometry" />
        </mxCell>
        <mxCell id="Ub1dUwBtqG9SPAVf1FS5-52" value="pusher" style="rounded=1;whiteSpace=wrap;html=1;strokeWidth=2;" parent="1" vertex="1">
          <mxGeometry x="170" y="360" width="120" height="60" as="geometry" />
        </mxCell>
        <mxCell id="Ub1dUwBtqG9SPAVf1FS5-62" style="edgeStyle=orthogonalEdgeStyle;rounded=0;orthogonalLoop=1;jettySize=auto;html=1;" parent="1" source="Ub1dUwBtqG9SPAVf1FS5-61" target="Ub1dUwBtqG9SPAVf1FS5-63" edge="1">
          <mxGeometry relative="1" as="geometry">
            <mxPoint x="26.5" y="680" as="targetPoint" />
          </mxGeometry>
        </mxCell>
        <mxCell id="Ub1dUwBtqG9SPAVf1FS5-64" value="&#xa;&lt;span style=&quot;color: rgb(31, 31, 31); font-family: &amp;quot;Segoe UI&amp;quot;, tahoma, sans-serif; font-size: 12px; font-style: normal; font-variant-ligatures: normal; font-variant-caps: normal; font-weight: 400; letter-spacing: normal; orphans: 2; text-align: start; text-indent: 0px; text-transform: none; widows: 2; word-spacing: 0px; -webkit-text-stroke-width: 0px; white-space: normal; background-color: rgb(255, 255, 255); text-decoration-thickness: initial; text-decoration-style: initial; text-decoration-color: initial; display: inline !important; float: none;&quot;&gt;https://ccapi-x1.csslcloud.net/api/room/join&lt;/span&gt;&#xa;&#xa;" style="edgeLabel;html=1;align=center;verticalAlign=middle;resizable=0;points=[];" parent="Ub1dUwBtqG9SPAVf1FS5-62" vertex="1" connectable="0">
          <mxGeometry x="-0.2516" y="-2" relative="1" as="geometry">
            <mxPoint x="-50" y="2" as="offset" />
          </mxGeometry>
        </mxCell>
        <mxCell id="Ub1dUwBtqG9SPAVf1FS5-80" style="edgeStyle=orthogonalEdgeStyle;rounded=0;orthogonalLoop=1;jettySize=auto;html=1;entryX=0;entryY=0.5;entryDx=0;entryDy=0;" parent="1" source="Ub1dUwBtqG9SPAVf1FS5-61" target="Ub1dUwBtqG9SPAVf1FS5-81" edge="1">
          <mxGeometry relative="1" as="geometry">
            <mxPoint x="621.5" y="680" as="targetPoint" />
          </mxGeometry>
        </mxCell>
        <mxCell id="Ub1dUwBtqG9SPAVf1FS5-82" value="&lt;span style=&quot;color: rgb(31, 31, 31); font-family: &amp;quot;Segoe UI&amp;quot;, tahoma, sans-serif; font-size: 12px; text-align: start; text-wrap: wrap;&quot;&gt;https://event.csslcloud.net/api/documents/live/infos&lt;/span&gt;" style="edgeLabel;html=1;align=center;verticalAlign=middle;resizable=0;points=[];" parent="Ub1dUwBtqG9SPAVf1FS5-80" vertex="1" connectable="0">
          <mxGeometry x="0.0236" y="-1" relative="1" as="geometry">
            <mxPoint x="9" y="-1" as="offset" />
          </mxGeometry>
        </mxCell>
        <mxCell id="Ub1dUwBtqG9SPAVf1FS5-61" value="后进学员" style="shape=umlActor;verticalLabelPosition=bottom;verticalAlign=top;html=1;" parent="1" vertex="1">
          <mxGeometry x="270" y="690" width="30" height="60" as="geometry" />
        </mxCell>
        <mxCell id="Ub1dUwBtqG9SPAVf1FS5-63" value="获取视频的状态和播放当前进度" style="rounded=1;whiteSpace=wrap;html=1;" parent="1" vertex="1">
          <mxGeometry x="-130" y="690" width="120" height="60" as="geometry" />
        </mxCell>
        <mxCell id="Ub1dUwBtqG9SPAVf1FS5-67" value="" style="edgeStyle=orthogonalEdgeStyle;rounded=0;orthogonalLoop=1;jettySize=auto;html=1;" parent="1" source="Ub1dUwBtqG9SPAVf1FS5-65" target="Ub1dUwBtqG9SPAVf1FS5-66" edge="1">
          <mxGeometry relative="1" as="geometry" />
        </mxCell>
        <mxCell id="Ub1dUwBtqG9SPAVf1FS5-65" value="直播间管理" style="rounded=1;whiteSpace=wrap;html=1;strokeWidth=2;" parent="1" vertex="1">
          <mxGeometry x="-178.5" y="1030" width="120" height="60" as="geometry" />
        </mxCell>
        <mxCell id="Ub1dUwBtqG9SPAVf1FS5-69" value="" style="edgeStyle=orthogonalEdgeStyle;rounded=0;orthogonalLoop=1;jettySize=auto;html=1;" parent="1" source="Ub1dUwBtqG9SPAVf1FS5-66" target="Ub1dUwBtqG9SPAVf1FS5-68" edge="1">
          <mxGeometry relative="1" as="geometry" />
        </mxCell>
        <mxCell id="Ub1dUwBtqG9SPAVf1FS5-78" value="" style="edgeStyle=orthogonalEdgeStyle;rounded=0;orthogonalLoop=1;jettySize=auto;html=1;" parent="1" source="Ub1dUwBtqG9SPAVf1FS5-66" target="Ub1dUwBtqG9SPAVf1FS5-77" edge="1">
          <mxGeometry relative="1" as="geometry" />
        </mxCell>
        <mxCell id="Ub1dUwBtqG9SPAVf1FS5-79" value="room/info" style="edgeLabel;html=1;align=center;verticalAlign=middle;resizable=0;points=[];" parent="Ub1dUwBtqG9SPAVf1FS5-78" vertex="1" connectable="0">
          <mxGeometry x="0.075" relative="1" as="geometry">
            <mxPoint as="offset" />
          </mxGeometry>
        </mxCell>
        <mxCell id="Ub1dUwBtqG9SPAVf1FS5-66" value="详情" style="whiteSpace=wrap;html=1;rounded=1;strokeWidth=2;" parent="1" vertex="1">
          <mxGeometry x="51.5" y="1030" width="120" height="60" as="geometry" />
        </mxCell>
        <mxCell id="Ub1dUwBtqG9SPAVf1FS5-71" value="" style="edgeStyle=orthogonalEdgeStyle;rounded=0;orthogonalLoop=1;jettySize=auto;html=1;" parent="1" source="Ub1dUwBtqG9SPAVf1FS5-68" edge="1">
          <mxGeometry relative="1" as="geometry">
            <mxPoint x="451.5" y="1060" as="targetPoint" />
          </mxGeometry>
        </mxCell>
        <mxCell id="Ub1dUwBtqG9SPAVf1FS5-68" value="高级" style="whiteSpace=wrap;html=1;rounded=1;strokeWidth=2;" parent="1" vertex="1">
          <mxGeometry x="251.5" y="1030" width="120" height="60" as="geometry" />
        </mxCell>
        <mxCell id="Ub1dUwBtqG9SPAVf1FS5-75" value="" style="edgeStyle=orthogonalEdgeStyle;rounded=0;orthogonalLoop=1;jettySize=auto;html=1;" parent="1" source="Ub1dUwBtqG9SPAVf1FS5-73" target="Ub1dUwBtqG9SPAVf1FS5-74" edge="1">
          <mxGeometry relative="1" as="geometry" />
        </mxCell>
        <mxCell id="Ub1dUwBtqG9SPAVf1FS5-76" value="room/update" style="edgeLabel;html=1;align=center;verticalAlign=middle;resizable=0;points=[];" parent="Ub1dUwBtqG9SPAVf1FS5-75" vertex="1" connectable="0">
          <mxGeometry x="-0.3" relative="1" as="geometry">
            <mxPoint as="offset" />
          </mxGeometry>
        </mxCell>
        <mxCell id="Ub1dUwBtqG9SPAVf1FS5-73" value="插播音视频方式&lt;div&gt;0:rtc模式 1:点播模式&lt;/div&gt;" style="rounded=1;whiteSpace=wrap;html=1;strokeWidth=2;" parent="1" vertex="1">
          <mxGeometry x="451.5" y="1030" width="120" height="60" as="geometry" />
        </mxCell>
        <mxCell id="Ub1dUwBtqG9SPAVf1FS5-74" value="更新房间信息&lt;div&gt;video_play_mode&lt;/div&gt;" style="whiteSpace=wrap;html=1;rounded=1;strokeWidth=2;" parent="1" vertex="1">
          <mxGeometry x="688.5" y="1030" width="120" height="60" as="geometry" />
        </mxCell>
        <mxCell id="Ub1dUwBtqG9SPAVf1FS5-77" value="查询房间信息&lt;div&gt;返回videoPlayMode&lt;/div&gt;" style="whiteSpace=wrap;html=1;rounded=1;strokeWidth=2;" parent="1" vertex="1">
          <mxGeometry x="51.5" y="1170" width="120" height="60" as="geometry" />
        </mxCell>
        <mxCell id="Ub1dUwBtqG9SPAVf1FS5-81" value="获取dom操作信息" style="rounded=1;whiteSpace=wrap;html=1;" parent="1" vertex="1">
          <mxGeometry x="650" y="690" width="120" height="60" as="geometry" />
        </mxCell>
        <mxCell id="Ub1dUwBtqG9SPAVf1FS5-97" style="edgeStyle=orthogonalEdgeStyle;rounded=0;orthogonalLoop=1;jettySize=auto;html=1;entryX=1;entryY=0.5;entryDx=0;entryDy=0;" parent="1" source="Ub1dUwBtqG9SPAVf1FS5-85" target="Ub1dUwBtqG9SPAVf1FS5-89" edge="1">
          <mxGeometry relative="1" as="geometry" />
        </mxCell>
        <mxCell id="Ub1dUwBtqG9SPAVf1FS5-85" value="redis的pub、sub" style="ellipse;whiteSpace=wrap;html=1;rounded=1;strokeWidth=2;" parent="1" vertex="1">
          <mxGeometry x="190" y="460" width="80" height="80" as="geometry" />
        </mxCell>
        <mxCell id="Ub1dUwBtqG9SPAVf1FS5-89" value="collect&amp;nbsp;&lt;div&gt;监听pub、sub 存入缓存&lt;/div&gt;" style="rounded=1;whiteSpace=wrap;html=1;" parent="1" vertex="1">
          <mxGeometry x="-30" y="470" width="120" height="60" as="geometry" />
        </mxCell>
        <mxCell id="Ub1dUwBtqG9SPAVf1FS5-92" value="redis" style="shape=cylinder3;whiteSpace=wrap;html=1;boundedLbl=1;backgroundOutline=1;size=15;" parent="1" vertex="1">
          <mxGeometry x="-170" y="460" width="60" height="80" as="geometry" />
        </mxCell>
        <mxCell id="Ub1dUwBtqG9SPAVf1FS5-98" style="edgeStyle=orthogonalEdgeStyle;rounded=0;orthogonalLoop=1;jettySize=auto;html=1;entryX=1;entryY=0.5;entryDx=0;entryDy=0;entryPerimeter=0;" parent="1" source="Ub1dUwBtqG9SPAVf1FS5-89" target="Ub1dUwBtqG9SPAVf1FS5-92" edge="1">
          <mxGeometry relative="1" as="geometry" />
        </mxCell>
        <mxCell id="Ub1dUwBtqG9SPAVf1FS5-100" style="edgeStyle=orthogonalEdgeStyle;rounded=0;orthogonalLoop=1;jettySize=auto;html=1;entryX=0.5;entryY=1;entryDx=0;entryDy=0;entryPerimeter=0;" parent="1" source="Ub1dUwBtqG9SPAVf1FS5-63" target="Ub1dUwBtqG9SPAVf1FS5-92" edge="1">
          <mxGeometry relative="1" as="geometry">
            <Array as="points">
              <mxPoint x="-140" y="730" />
            </Array>
          </mxGeometry>
        </mxCell>
        <mxCell id="Ub1dUwBtqG9SPAVf1FS5-101" value="获取视频播放进度" style="edgeLabel;html=1;align=center;verticalAlign=middle;resizable=0;points=[];" parent="Ub1dUwBtqG9SPAVf1FS5-100" vertex="1" connectable="0">
          <mxGeometry x="-0.1167" relative="1" as="geometry">
            <mxPoint as="offset" />
          </mxGeometry>
        </mxCell>
        <mxCell id="5Uoj2dgC7Bq5K5UiY4C5-1" value="" style="edgeStyle=orthogonalEdgeStyle;rounded=0;orthogonalLoop=1;jettySize=auto;html=1;" edge="1" parent="1" source="5Uoj2dgC7Bq5K5UiY4C5-8" target="5Uoj2dgC7Bq5K5UiY4C5-9">
          <mxGeometry relative="1" as="geometry" />
        </mxCell>
        <mxCell id="5Uoj2dgC7Bq5K5UiY4C5-2" value="api/record/desc" style="edgeLabel;html=1;align=center;verticalAlign=middle;resizable=0;points=[];" vertex="1" connectable="0" parent="5Uoj2dgC7Bq5K5UiY4C5-1">
          <mxGeometry x="-0.1" y="1" relative="1" as="geometry">
            <mxPoint as="offset" />
          </mxGeometry>
        </mxCell>
        <mxCell id="5Uoj2dgC7Bq5K5UiY4C5-3" value="" style="edgeStyle=orthogonalEdgeStyle;rounded=0;orthogonalLoop=1;jettySize=auto;html=1;" edge="1" parent="1" source="5Uoj2dgC7Bq5K5UiY4C5-8" target="5Uoj2dgC7Bq5K5UiY4C5-10">
          <mxGeometry relative="1" as="geometry" />
        </mxCell>
        <mxCell id="5Uoj2dgC7Bq5K5UiY4C5-4" value="meida/track" style="edgeLabel;html=1;align=center;verticalAlign=middle;resizable=0;points=[];" vertex="1" connectable="0" parent="5Uoj2dgC7Bq5K5UiY4C5-3">
          <mxGeometry x="-0.2308" y="2" relative="1" as="geometry">
            <mxPoint as="offset" />
          </mxGeometry>
        </mxCell>
        <mxCell id="5Uoj2dgC7Bq5K5UiY4C5-5" value="" style="edgeStyle=orthogonalEdgeStyle;rounded=0;orthogonalLoop=1;jettySize=auto;html=1;" edge="1" parent="1" source="5Uoj2dgC7Bq5K5UiY4C5-8" target="5Uoj2dgC7Bq5K5UiY4C5-11">
          <mxGeometry relative="1" as="geometry" />
        </mxCell>
        <mxCell id="5Uoj2dgC7Bq5K5UiY4C5-6" value="replay/infos" style="edgeLabel;html=1;align=center;verticalAlign=middle;resizable=0;points=[];" vertex="1" connectable="0" parent="5Uoj2dgC7Bq5K5UiY4C5-5">
          <mxGeometry x="-0.14" y="-1" relative="1" as="geometry">
            <mxPoint as="offset" />
          </mxGeometry>
        </mxCell>
        <mxCell id="5Uoj2dgC7Bq5K5UiY4C5-7" style="edgeStyle=orthogonalEdgeStyle;rounded=0;orthogonalLoop=1;jettySize=auto;html=1;" edge="1" parent="1" source="5Uoj2dgC7Bq5K5UiY4C5-8" target="5Uoj2dgC7Bq5K5UiY4C5-12">
          <mxGeometry relative="1" as="geometry">
            <mxPoint x="-130" y="1640" as="targetPoint" />
          </mxGeometry>
        </mxCell>
        <mxCell id="5Uoj2dgC7Bq5K5UiY4C5-8" value="回放" style="rounded=1;whiteSpace=wrap;html=1;strokeWidth=2;" vertex="1" parent="1">
          <mxGeometry x="20" y="1610" width="120" height="60" as="geometry" />
        </mxCell>
        <mxCell id="5Uoj2dgC7Bq5K5UiY4C5-9" value="获取插播视频模式" style="whiteSpace=wrap;html=1;rounded=1;strokeWidth=2;" vertex="1" parent="1">
          <mxGeometry x="310" y="1610" width="120" height="60" as="geometry" />
        </mxCell>
        <mxCell id="5Uoj2dgC7Bq5K5UiY4C5-10" value="获取插播音视频操作" style="whiteSpace=wrap;html=1;rounded=1;strokeWidth=2;" vertex="1" parent="1">
          <mxGeometry x="20" y="1774" width="120" height="60" as="geometry" />
        </mxCell>
        <mxCell id="5Uoj2dgC7Bq5K5UiY4C5-11" value="获取视频DOM操作" style="whiteSpace=wrap;html=1;rounded=1;strokeWidth=2;" vertex="1" parent="1">
          <mxGeometry x="20" y="1450" width="120" height="60" as="geometry" />
        </mxCell>
        <mxCell id="5Uoj2dgC7Bq5K5UiY4C5-12" value="渲染播放插播音视频" style="rounded=1;whiteSpace=wrap;html=1;strokeWidth=2;" vertex="1" parent="1">
          <mxGeometry x="-190" y="1610" width="120" height="60" as="geometry" />
        </mxCell>
      </root>
    </mxGraphModel>
  </diagram>
</mxfile>
